<svg width="464" height="510" viewBox="0 0 464 510" fill="none" xmlns="http://www.w3.org/2000/svg">
<path d="M269 145H179C123.772 145 79 189.772 79 245V320C79 333.807 90.1929 345 104 345H344C357.807 345 369 333.807 369 320V245C369 189.772 324.228 145 269 145Z" fill="#A5A5A5" stroke="black" stroke-width="10"/>
<path d="M139 230V425C139 436.046 147.954 445 159 445H289C300.046 445 309 436.046 309 425V230C309 183.056 270.944 145 224 145C177.056 145 139 183.056 139 230Z" fill="#A5A5A5" stroke="black" stroke-width="10"/>
<path d="M170 98.5V195C170 206.046 178.954 215 190 215H257C268.046 215 277 206.046 277 195V98.5C277 68.9528 253.047 45 223.5 45C193.953 45 170 68.9528 170 98.5Z" fill="#A5A5A5" stroke="black" stroke-width="10"/>
<path d="M157 297H104C90.1929 297 79 308.193 79 322V341C79 352.046 87.9543 361 99 361H164C177.807 361 189 349.807 189 336V329C189 311.327 174.673 297 157 297Z" fill="#A5A5A5" stroke="black" stroke-width="10"/>
<path d="M344 281H291C273.327 281 259 295.327 259 313V320C259 333.807 270.193 345 284 345H349C360.046 345 369 336.046 369 325V306C369 292.193 357.807 281 344 281Z" fill="#A5A5A5" stroke="black" stroke-width="10"/>
<path d="M287 87H160C152.268 87 146 93.268 146 101C146 108.732 152.268 115 160 115H287C294.732 115 301 108.732 301 101C301 93.268 294.732 87 287 87Z" fill="#A5A5A5" stroke="black" stroke-width="10"/>
<path d="M250 135H243C235.268 135 229 141.268 229 149C229 156.732 235.268 163 243 163H250C257.732 163 264 156.732 264 149C264 141.268 257.732 135 250 135Z" fill="#A5A5A5" stroke="black" stroke-width="10"/>
<path d="M205 135H198C190.268 135 184 141.268 184 149C184 156.732 190.268 163 198 163H205C212.732 163 219 156.732 219 149C219 141.268 212.732 135 205 135Z" fill="#A5A5A5" stroke="black" stroke-width="10"/>
<path d="M134 142.5V170.5C134 180.165 141.835 188 151.5 188C161.165 188 169 180.165 169 170.5V142.5C169 132.835 161.165 125 151.5 125C141.835 125 134 132.835 134 142.5Z" fill="#A5A5A5" stroke="black" stroke-width="10"/>
<path d="M279 142.5V170.5C279 180.165 286.835 188 296.5 188C306.165 188 314 180.165 314 170.5V142.5C314 132.835 306.165 125 296.5 125C286.835 125 279 132.835 279 142.5Z" fill="#A5A5A5" stroke="black" stroke-width="10"/>
<path d="M206 172.5V185C206 190.523 210.477 195 216 195H231C236.523 195 241 190.523 241 185V172.5C241 162.835 233.165 155 223.5 155C213.835 155 206 162.835 206 172.5Z" fill="#A5A5A5" stroke="black" stroke-width="10"/>
</svg>
