<svg width="371" height="473" viewBox="0 0 371 473" fill="none" xmlns="http://www.w3.org/2000/svg">
<path d="M171.739 326H218.854C298.223 326 362.874 389.012 365.51 467.739H25.0835C27.7195 389.012 92.3707 326 171.739 326Z" fill="#FFD9A0" stroke="black" stroke-width="10"/>
<path d="M135.702 329L131 386H263L249.901 329H192.466H135.702Z" fill="#C07A26" stroke="black" stroke-width="10"/>
<path d="M140.919 272L137 329H247L236.084 272H188.221H140.919Z" fill="#C07A26" stroke="black" stroke-width="10"/>
<path d="M146.206 215L143 272H233L224.069 215H184.908H146.206Z" fill="#C07A26" stroke="black" stroke-width="10"/>
<path d="M150.601 158L148 215H221L213.756 158H181.992H150.601Z" fill="#C07A26" stroke="black" stroke-width="10"/>
<path d="M338.018 208.95L175.241 161.202C189.39 117.739 235.645 93.1378 279.799 106.09C323.953 119.041 349.589 164.73 338.018 208.95Z" fill="#31EB44" stroke="black" stroke-width="10"/>
<path d="M338.222 81.173L184.679 153.29C166.472 111.364 184.807 62.2877 226.456 42.7257C268.106 23.1636 317.583 40.3894 338.222 81.173Z" fill="#31EB44" stroke="black" stroke-width="10"/>
<path d="M185.508 160.612L26.4619 101.616C43.6112 59.2463 91.4706 37.9348 134.613 53.9378C177.755 69.9408 200.138 117.308 185.508 160.612Z" fill="#31EB44" stroke="black" stroke-width="10"/>
<path d="M192.449 169.048L30.0454 218.051C18.1331 173.921 43.416 128.036 87.4687 114.744C131.521 101.451 177.965 125.694 192.449 169.048Z" fill="#31EB44" stroke="black" stroke-width="10"/>
<path d="M103 156V157C103 175.778 118.222 191 137 191C155.778 191 171 175.778 171 157V156C171 137.222 155.778 122 137 122C118.222 122 103 137.222 103 156Z" fill="#FAB16D" stroke="black" stroke-width="10"/>
<path d="M189 155V156C189 174.778 204.222 190 223 190C241.778 190 257 174.778 257 156V155C257 136.222 241.778 121 223 121C204.222 121 189 136.222 189 155Z" fill="#FAB16D" stroke="black" stroke-width="10"/>
<path d="M148 175V176C148 194.778 163.222 210 182 210C200.778 210 216 194.778 216 176V175C216 156.222 200.778 141 182 141C163.222 141 148 156.222 148 175Z" fill="#FAB16D" stroke="black" stroke-width="10"/>
</svg>
