<svg width="140" height="133" viewBox="0 0 140 133" fill="none" xmlns="http://www.w3.org/2000/svg">
<path d="M81.164 37.8137H54.0088C37.3452 37.8137 23.8364 49.4896 23.8364 63.8922V83.451C23.8364 87.0516 27.2136 89.9706 31.3795 89.9706H103.793C107.959 89.9706 111.336 87.0516 111.336 83.451V63.8922C111.336 49.4896 97.8276 37.8137 81.164 37.8137Z" fill="#A5A5A5" stroke="black" stroke-width="3"/>
<path d="M41.9395 59.9804V110.833C41.9395 113.714 44.6411 116.049 47.9739 116.049H87.1981C90.5309 116.049 93.2326 113.714 93.2326 110.833V59.9804C93.2326 47.7381 81.7501 37.8137 67.586 37.8137C53.4219 37.8137 41.9395 47.7381 41.9395 59.9804Z" fill="#A5A5A5" stroke="black" stroke-width="3"/>
<path d="M51.293 25.6873V50.8529C51.293 53.7336 53.9946 56.0686 57.3275 56.0686H77.543C80.8758 56.0686 83.5774 53.7336 83.5774 50.8529V25.6873C83.5774 17.9818 76.3503 11.7353 67.4352 11.7353C58.5202 11.7353 51.293 17.9818 51.293 25.6873Z" fill="#A5A5A5" stroke="black" stroke-width="3"/>
<path d="M47.3709 77.4529H31.3795C27.2136 77.4529 23.8364 80.3719 23.8364 83.9725V88.9275C23.8364 91.8081 26.5382 94.1431 29.8709 94.1431H49.483C53.6489 94.1431 57.0261 91.2242 57.0261 87.6235V85.798C57.0261 81.1892 52.7033 77.4529 47.3709 77.4529Z" fill="#A5A5A5" stroke="black" stroke-width="3"/>
<path d="M103.793 73.2804H87.8017C82.4693 73.2804 78.1465 77.0167 78.1465 81.6255V83.451C78.1465 87.0516 81.5237 89.9706 85.6896 89.9706H105.302C108.635 89.9706 111.336 87.6355 111.336 84.7549V79.8C111.336 76.1994 107.959 73.2804 103.793 73.2804Z" fill="#A5A5A5" stroke="black" stroke-width="3"/>
<path d="M86.5949 22.6882H48.2759C45.943 22.6882 44.0518 24.3228 44.0518 26.3392C44.0518 28.3556 45.943 29.9902 48.2759 29.9902H86.5949C88.9278 29.9902 90.819 28.3556 90.819 26.3392C90.819 24.3228 88.9278 22.6882 86.5949 22.6882Z" fill="#A5A5A5" stroke="black" stroke-width="3"/>
<path d="M40.4312 37.1617V44.4637C40.4312 46.9842 42.7952 49.0274 45.7113 49.0274C48.6275 49.0274 50.9915 46.9842 50.9915 44.4637V37.1617C50.9915 34.6413 48.6275 32.598 45.7113 32.598C42.7952 32.598 40.4312 34.6413 40.4312 37.1617Z" fill="#A5A5A5" stroke="black" stroke-width="3"/>
<path d="M84.1812 37.1617V44.4637C84.1812 46.9842 86.5452 49.0274 89.4613 49.0274C92.3775 49.0274 94.7415 46.9842 94.7415 44.4637V37.1617C94.7415 34.6413 92.3775 32.598 89.4613 32.598C86.5452 32.598 84.1812 34.6413 84.1812 37.1617Z" fill="#A5A5A5" stroke="black" stroke-width="3"/>
</svg>
